<svg id="Capa_1" enable-background="new 0 0 512.011 512.011" height="512" viewBox="0 0 512.011 512.011" width="512" xmlns="http://www.w3.org/2000/svg"><g><path d="m228.596 58.797c-24.147 0-43.792 19.645-43.792 43.792s19.645 43.792 43.792 43.792 43.792-19.645 43.792-43.792-19.644-43.792-43.792-43.792zm0 72.584c-15.876 0-28.792-12.916-28.792-28.792s12.916-28.792 28.792-28.792 28.792 12.916 28.792 28.792-12.916 28.792-28.792 28.792z"/><path d="m125.3 114.156c-24.147 0-43.792 19.645-43.792 43.792s19.645 43.792 43.792 43.792 43.792-19.645 43.792-43.792-19.644-43.792-43.792-43.792zm0 72.585c-15.876 0-28.792-12.916-28.792-28.792s12.916-28.792 28.792-28.792 28.792 12.916 28.792 28.792-12.916 28.792-28.792 28.792z"/><path d="m99.467 222.825c-24.147 0-43.792 19.645-43.792 43.792s19.645 43.792 43.792 43.792 43.792-19.645 43.792-43.792-19.644-43.792-43.792-43.792zm0 72.584c-15.876 0-28.792-12.916-28.792-28.792s12.916-28.792 28.792-28.792 28.792 12.916 28.792 28.792-12.916 28.792-28.792 28.792z"/><path d="m240.549 357.169c0 24.147 19.645 43.792 43.792 43.792s43.793-19.645 43.793-43.792-19.646-43.792-43.793-43.792-43.792 19.645-43.792 43.792zm43.792-28.792c15.877 0 28.793 12.916 28.793 28.792s-12.916 28.792-28.793 28.792c-15.876 0-28.792-12.916-28.792-28.792s12.916-28.792 28.792-28.792z"/><path d="m485.048 61.452c-4.106-.52-7.862 2.389-8.382 6.499-.881 6.959-2.502 13.378-4.564 18.075-2.363 5.381-5.991 10.055-10.568 13.724l-60.507-25.686c-.394-5.718.578-11.448 2.916-16.772 8.636-19.666 41.196-48.568 58.574-41.188 8.595 3.648 12.135 16.067 13.48 23.145.773 4.07 4.707 6.739 8.769 5.967 4.069-.774 6.741-4.7 5.968-8.769-3.337-17.55-11.067-29.359-22.355-34.151-27.506-11.673-67.072 23.693-78.17 48.964-2.583 5.883-4.008 12.119-4.25 18.427-5.674.481-10.924 3.946-13.347 9.46l-5.743 13.079c-1.705 3.882-1.782 8.19-.219 12.13 1.577 3.974 4.627 7.089 8.588 8.77l2.565 1.089-19.89 49.034c-24.142-13.167-38.898-38.617-38.012-65.88.533-16.423-5.055-32.328-15.732-44.785-17.854-20.826-39.819-23.801-67.05-23.915-25.497-.105-50.484 4.172-74.343 12.709-3.9 1.396-5.931 5.688-4.535 9.588s5.693 5.93 9.588 4.535c22.213-7.948 45.479-11.907 69.229-11.833 7.744.032 15.541.502 23.175 1.397 26.328 3.087 45.535 25.363 44.677 51.815-1.087 33.473 17.339 64.75 47.328 80.36l-37.248 91.826c0-.229-.003-.458.005-.686.137-4.14-3.107-7.606-7.248-7.744-4.099-.144-7.606 3.107-7.744 7.248-1.205 36.369 48.43 62.563 80.679 43.389 3.561-2.117 4.73-6.719 2.613-10.279-1.717-2.888-5.071-4.202-8.176-3.466l45.717-96.576c10.764 9.825 15.995 22.295 16.156 37.798.583 51.784-19.79 101.228-57.365 139.226-60.608 61.29-148.396 75.298-221.741 44.741-73.253-30.519-125.104-102.879-122.381-188.099 2.306-72.103 44.333-134.729 105.528-167.271 3.657-1.945 5.045-6.486 3.101-10.144-1.945-3.657-6.484-5.044-10.144-3.101-65.479 34.822-110.984 102.052-113.477 180.036-3.898 121.955 96.58 221.353 219.767 219.108l-8.966 22.102c-5.499 13.559.833 28.696 14.417 34.463 13.436 5.703 28.907-.025 35.154-13.22l26.151-55.243c30.958-10.793 59.388-28.689 83.255-52.823 40.609-41.065 63.012-95.126 61.651-152.662-.46-19.071-9.508-36.998-24.462-48.951l20.342-42.973 2.73 1.159c8.083 3.432 17.476-.301 20.966-8.247l5.743-13.081c1.704-3.882 1.782-8.189.218-12.129-.577-1.453-1.355-2.789-2.298-3.984 4.47-4.478 8.084-9.748 10.655-15.602 2.664-6.067 4.639-13.751 5.711-22.222.521-4.108-2.389-7.861-6.499-8.381zm-217.72 428.721c-2.718 5.743-9.771 8.36-15.734 5.831-5.965-2.533-8.767-9.129-6.378-15.018l11.636-28.684c10.463-.996 20.778-2.75 30.882-5.235zm88.77-187.525c-12.791.002-25.123-5.893-32.751-14.278l68.266-168.292 42.391 17.996zm107.43-184.907-5.743 13.08c-.207.473-.847.692-1.37.47l-75.316-31.972c-.44-.187-.684-.636-.495-1.062l5.743-13.079c.206-.472.849-.693 1.37-.47l75.315 31.972c.308.131.445.342.507.496.112.284.019.496-.011.565z"/><path d="m129.265 350.49c0 14.458 7.134 27.974 19.082 36.154 3.419 2.34 8.086 1.467 10.426-1.951s1.466-8.086-1.951-10.426c-7.862-5.383-12.557-14.271-12.557-23.777 0-15.876 12.916-28.792 28.792-28.792 15.877 0 28.793 12.916 28.793 28.792 0 13.077-8.821 24.527-21.451 27.846-4.007 1.053-6.401 5.153-5.349 9.159 1.056 4.02 5.167 6.399 9.159 5.349 19.219-5.049 32.641-22.466 32.641-42.354 0-24.147-19.646-43.792-43.793-43.792s-43.792 19.644-43.792 43.792z"/></g></svg>