<svg id="Capa_1" enable-background="new 0 0 512 512" height="512" viewBox="0 0 512 512" width="512" xmlns="http://www.w3.org/2000/svg"><g><g><path d="m164.224 272.163c0 50.605 41.171 91.776 91.776 91.776s91.776-41.171 91.776-91.776c0-50.606-41.171-91.777-91.776-91.777s-91.776 41.17-91.776 91.777zm168.552 0c0 42.335-34.441 76.776-76.776 76.776-42.334 0-76.776-34.441-76.776-76.776s34.442-76.777 76.776-76.777c42.335-.001 76.776 34.442 76.776 76.777z"/><path d="m470.583 142.861c0-4.143-3.357-7.5-7.5-7.5h-66.671c-4.143 0-7.5 3.357-7.5 7.5v46.468c0 4.143 3.357 7.5 7.5 7.5h66.671c4.143 0 7.5-3.357 7.5-7.5zm-15 38.968h-51.671v-31.468h51.671z"/><path d="m442.88 214.154c-15.275 0-27.703 12.428-27.703 27.703s12.428 27.703 27.703 27.703 27.703-12.428 27.703-27.703-12.428-27.703-27.703-27.703zm0 40.406c-7.005 0-12.703-5.698-12.703-12.703s5.698-12.703 12.703-12.703 12.703 5.698 12.703 12.703-5.698 12.703-12.703 12.703z"/><path d="m61.09 426.29h-46.09v-308.25h410.33c4.143 0 7.5-3.357 7.5-7.5s-3.357-7.5-7.5-7.5h-281.029v-24.83c0-4.143-3.358-7.5-7.5-7.5h-66.671c-4.142 0-7.5 3.357-7.5 7.5v24.829h-55.13c-4.142 0-7.5 3.357-7.5 7.5v323.25c0 4.143 3.358 7.5 7.5 7.5h53.59c4.142 0 7.5-3.357 7.5-7.5s-3.358-7.499-7.5-7.499zm16.54-340.58h51.67v17.329h-51.67z"/><path d="m504.5 103.04h-44.07c-4.143 0-7.5 3.357-7.5 7.5s3.357 7.5 7.5 7.5h36.57v308.25h-400.81c-4.142 0-7.5 3.357-7.5 7.5s3.358 7.5 7.5 7.5h408.31c4.143 0 7.5-3.357 7.5-7.5v-323.25c0-4.143-3.357-7.5-7.5-7.5z"/><path d="m127.281 272.163c0 70.976 57.743 128.719 128.719 128.719 70.977 0 128.72-57.743 128.72-128.719 0-70.977-57.743-128.72-128.72-128.72-70.976 0-128.719 57.743-128.719 128.72zm242.439 0c0 62.705-51.015 113.719-113.72 113.719s-113.719-51.014-113.719-113.719 51.014-113.72 113.719-113.72 113.72 51.015 113.72 113.72z"/><path d="m201.167 272.163c0 30.235 24.598 54.833 54.833 54.833s54.833-24.598 54.833-54.833-24.598-54.834-54.833-54.834-54.833 24.598-54.833 54.834zm94.666 0c0 21.964-17.869 39.833-39.833 39.833s-39.833-17.869-39.833-39.833c0-21.965 17.869-39.834 39.833-39.834s39.833 17.869 39.833 39.834z"/></g></g></svg>