<svg id="Layer_1" enable-background="new 0 0 512.007 512.007" height="512" viewBox="0 0 512.007 512.007" width="512" xmlns="http://www.w3.org/2000/svg"><g><path d="m74.853 102.658c4.127.279 7.713-2.834 7.998-6.967.8-11.612 1.722-23.172 2.745-34.453 20.766-2.074 92.003-8.563 170.401-8.563s149.635 6.489 170.4 8.563c2.222 24.475 3.942 50.097 5.121 76.266.181 4.023 3.499 7.163 7.486 7.163.113 0 .229-.002.344-.008 4.138-.186 7.341-3.692 7.154-7.83-1.288-28.604-3.22-56.571-5.74-83.125-.336-3.536-3.106-6.352-6.637-6.745-.723-.081-63.754-7.012-141.641-8.844-.205-10.373-.598-20.455-1.174-30.056-.223-3.723-3.147-6.716-6.864-7.025-27.355-2.278-55.694-.096-56.887-.003-3.73.294-6.674 3.293-6.897 7.028-.576 9.604-.969 19.685-1.174 30.057-77.878 1.833-140.898 8.763-141.621 8.844-3.53.394-6.301 3.209-6.637 6.745-1.265 13.327-2.391 27.106-3.345 40.955-.283 4.133 2.835 7.713 6.968 7.998zm160.419-87.073c8.719-.449 24.974-.999 41.428-.057.361 7.216.621 14.676.776 22.304-7.077-.101-14.247-.156-21.478-.156-7.238 0-14.416.055-21.5.156.155-7.607.414-15.048.774-22.247z"/><path d="m447.726 170.67c-.112-4.14-3.555-7.393-7.702-7.292-4.141.113-7.405 3.562-7.292 7.703 3.11 113.482-4.22 208.004-6.343 232.341-20.777 2.076-92.004 8.562-170.392 8.562s-149.614-6.486-170.392-8.562c-2.374-27.241-11.26-142.418-4.747-274.024.204-4.137-2.983-7.657-7.12-7.861-4.151-.208-7.657 2.983-7.862 7.12-7.484 151.263 5.23 281.043 5.359 282.336.352 3.521 3.116 6.316 6.633 6.708.365.041 16.659 1.833 42.746 3.831-2.338 4.92-4.863 10.345-7.489 16.164-10.412-.954-16.256-1.631-16.554-1.667-4.108-.492-7.843 2.451-8.33 6.564-.488 4.113 2.45 7.843 6.563 8.331.253.03 4.428.514 11.949 1.237-3.616 8.422-7.295 17.377-10.842 26.607-1.342 3.493.096 7.441 3.37 9.253 1.047.579 25.939 14.296 51.784 23.546.831.297 1.685.439 2.526.439 2.711 0 5.299-1.478 6.63-3.993 9.531-18.01 17.857-35.778 24.375-50.502 23.818 1.081 51.368 1.857 81.391 1.857 19.636 0 40.332-.332 61.733-1.128 6.469 14.58 14.677 32.059 24.051 49.773 1.331 2.516 3.919 3.994 6.63 3.993.842 0 1.695-.142 2.526-.439 25.845-9.25 50.737-22.967 51.784-23.546 3.274-1.812 4.712-5.76 3.37-9.252-3.389-8.821-6.899-17.391-10.36-25.484 7.743-.71 15.519-1.493 23.315-2.354 4.117-.455 7.086-4.161 6.632-8.278-.454-4.116-4.154-7.083-8.278-6.631-9.379 1.036-18.729 1.957-28.026 2.774-2.804-6.236-5.5-12.035-7.985-17.264 26.087-1.999 42.38-3.79 42.746-3.831 3.517-.392 6.28-3.188 6.633-6.708.107-1.064 10.598-107.929 6.968-240.323zm-297.713 324.497c-15.367-5.953-29.937-13.183-37.687-17.201 3.364-8.501 6.807-16.707 10.164-24.398 12.037 1.001 27.63 2.141 46.041 3.143-5.249 11.654-11.512 24.894-18.518 38.456zm24.969-53.131c-18.069-.926-33.617-2.003-45.994-2.987 2.75-5.997 5.353-11.496 7.701-16.354 13.5.921 28.789 1.823 45.288 2.561-1.764 4.367-4.123 10.088-6.995 16.78zm15.982.747c3.081-7.302 5.427-13.134 6.909-16.885 18.434.664 38.047 1.086 58.125 1.086s39.691-.422 58.125-1.086c1.527 3.867 3.973 9.944 7.196 17.564-48.829 1.636-93.732.868-130.355-.679zm139.054-17.526c16.498-.738 31.788-1.64 45.288-2.561 2.484 5.139 5.253 10.996 8.18 17.4-15.613 1.185-31.029 2.086-46.126 2.748-3.03-7.041-5.508-13.046-7.342-17.587zm69.65 52.708c-7.751 4.018-22.32 11.248-37.688 17.201-6.836-13.234-12.965-26.162-18.134-37.608 15.116-.72 30.53-1.679 46.123-2.923 3.21 7.382 6.491 15.222 9.699 23.33z"/><path d="m255.997 102.676c7.942 0 16.134.07 24.348.208.043 0 .086.001.129.001 4.083 0 7.428-3.276 7.496-7.375.069-4.142-3.231-7.555-7.373-7.625-8.298-.139-16.574-.209-24.6-.209-51.623 0-99.973 2.875-131.443 5.287-3.715.285-6.658 3.254-6.909 6.971-7.472 110.317-3.095 213.237.179 264.768.237 3.731 3.186 6.717 6.913 7.002 10.114.774 20.443 1.479 30.7 2.096.153.009.306.014.457.014 3.937 0 7.24-3.069 7.479-7.05.249-4.135-2.901-7.688-7.036-7.937-7.984-.48-16.012-1.015-23.946-1.593-3.117-51.908-6.739-147.259-.207-249.801 31.153-2.275 76.087-4.757 123.813-4.757z"/><path d="m192.377 375.656c21.972.881 43.377 1.329 63.62 1.329 51.425 0 99.756-2.871 131.246-5.279 3.728-.285 6.677-3.272 6.913-7.004 3.268-51.607 7.639-154.627.192-264.759-.252-3.718-3.195-6.688-6.911-6.972-22.65-1.735-45.469-3.069-67.82-3.966-4.12-.144-7.629 3.055-7.795 7.193s3.055 7.629 7.193 7.795c20.04.804 40.458 1.962 60.792 3.448 6.509 102.379 2.892 197.818-.221 249.794-31.166 2.271-76.06 4.749-123.59 4.749-20.044 0-41.246-.443-63.019-1.317-4.12-.155-7.629 3.055-7.795 7.193-.164 4.14 3.057 7.629 7.195 7.796z"/></g></svg>