<svg id="Layer_5" enable-background="new 0 0 64 64" height="512" viewBox="0 0 64 64" width="512" xmlns="http://www.w3.org/2000/svg"><path d="m55 9h-29.586l-2 2h-14.414v30h46zm-44 18h4v-2h-4v-2h4v-2h-4v-2h4v-2h-4v-2h4v-2h2v18h-2v-2h-4zm0 6h2v2h-2zm12 6h-12v-2h12zm0-4h-8v-2h8zm0-6h-4v-2h4zm0-4h-4v-2h4zm0-4h-4v-2h4zm0-4h-4v-2h4zm16 22c-7.72 0-14-6.28-14-14s6.28-14 14-14 14 6.28 14 14-6.28 14-14 14z"/><path d="m39 45c.551 0 1-.449 1-1v-1h-4v2z"/><path d="m7 13h-1c-1.654 0-3 1.346-3 3v25h4z"/><path d="m30 43h4v2h-4z"/><path d="m24.586 7h30.414v-3c0-.551-.449-1-1-1h-44c-.551 0-1 .449-1 1v5h13.586zm-11.586 0h-2v-2h2zm4 0h-2v-2h2zm4 0h-2v-2h2z"/><path d="m39 13c-6.617 0-12 5.383-12 12s5.383 12 12 12 12-5.383 12-12-5.383-12-12-12zm-3.219 16.375-1.562 1.249-4.5-5.624 4.5-5.625 1.562 1.249-3.5 4.376zm3.209 2.767-1.979-.283 2-14 1.979.283zm4.791-1.517-1.562-1.249 3.5-4.375-3.5-4.375 1.562-1.249 4.5 5.625z"/><path d="m25 45h3v-2h-4v1c0 .551.449 1 1 1z"/><path d="m42 44c0 1.654-1.346 3-3 3h-14c-1.654 0-3-1.346-3-3v-1h-19v3c0 1.654 1.346 3 3 3h52c1.654 0 3-1.346 3-3v-3h-19z"/><path d="m58 13h-1v28h4v-25c0-1.654-1.346-3-3-3z"/><path d="m43.764 55h-5.764v2h7.382l-.724-1.447c-.17-.341-.513-.553-.894-.553z"/><path d="m28 51h8v6h-8z"/><path d="m20.236 55c-.381 0-.724.212-.894.553l-.724 1.447h7.382v-2z"/><path d="m18 59h28v2h-28z"/></svg>