<svg height="464pt" viewBox="-4 0 464 464" width="464pt" xmlns="http://www.w3.org/2000/svg"><path d="m416 400h-24v-16h24c13.253906 0 24-10.746094 24-24v-320c0-13.253906-10.746094-24-24-24s-24 10.746094-24 24v80c-.027344 22.082031-17.917969 39.972656-40 40h-48v-16h48c13.253906 0 24-10.746094 24-24v-80c0-22.089844 17.910156-40 40-40s40 17.910156 40 40v320c-.027344 22.082031-17.917969 39.972656-40 40zm0 0"/><path d="m8 464h336c4.417969 0 8-3.582031 8-8v-88c0-4.417969-3.582031-8-8-8h-336c-4.417969 0-8 3.582031-8 8v88c0 4.417969 3.582031 8 8 8zm280-8h-224v-16h224zm16-16h16v-24h16v32c0 4.417969-3.582031 8-8 8h-24zm-24-64h16v16h-16zm0 32h16v16h-16zm-32-32h16v16h-16zm0 32h16v16h-16zm-32-32h16v16h-16zm0 32h16v16h-16zm-32-32h16v16h-16zm0 32h16v16h-16zm-32-32h16v16h-16zm0 32h16v16h-16zm-32-32h16v16h-16zm0 32h16v16h-16zm-32-32h16v16h-16zm0 32h16v16h-16zm-32-32h16v16h-16zm0 32h16v16h-16zm-32-32h16v16h-16zm0 32h16v16h-16zm-8 32h32v16h-32zm0 0"/><path d="m368 384h8v16h-8zm0 0"/><path d="m288 264v-200h-288v200c0 4.417969 3.582031 8 8 8h272c4.417969 0 8-3.582031 8-8zm-96-88v16h-80v-16zm-32-16h-80v-16h80zm-64 16v16h-32v-16zm-29.65625-82.34375 11.3125-11.3125 16 16c3.121094 3.125 3.121094 8.1875 0 11.3125l-16 16-11.3125-11.3125 10.34375-10.34375zm-18.34375 50.34375h16v16h-16zm-29.65625-45.65625 16-16 11.3125 11.3125-10.34375 10.34375 10.34375 10.34375-11.3125 11.3125-16-16c-3.121094-3.125-3.121094-8.1875 0-11.3125zm13.65625 109.65625h144v16h-144zm80 48h-32v-16h32zm96 0h-80v-16h80zm0 0"/><path d="m280 16h-272c-4.417969 0-8 3.582031-8 8v24h288v-24c0-4.417969-3.582031-8-8-8zm-248 24h-16v-16h16zm32 0h-16v-16h16zm32 0h-16v-16h16zm0 0"/></svg>